<svg id="my-svg" width="100%" xmlns="http://www.w3.org/2000/svg" xmlns:xlink="http://www.w3.org/1999/xlink" class="statediagram" style="max-width: 1842.03px; background-color: white;" viewBox="0 0 1842.02734375 2034" role="graphics-document document" aria-roledescription="stateDiagram"><style>#my-svg{font-family:"trebuchet ms",verdana,arial,sans-serif;font-size:16px;fill:#333;}@keyframes edge-animation-frame{from{stroke-dashoffset:0;}}@keyframes dash{to{stroke-dashoffset:0;}}#my-svg .edge-animation-slow{stroke-dasharray:9,5!important;stroke-dashoffset:900;animation:dash 50s linear infinite;stroke-linecap:round;}#my-svg .edge-animation-fast{stroke-dasharray:9,5!important;stroke-dashoffset:900;animation:dash 20s linear infinite;stroke-linecap:round;}#my-svg .error-icon{fill:#552222;}#my-svg .error-text{fill:#552222;stroke:#552222;}#my-svg .edge-thickness-normal{stroke-width:1px;}#my-svg .edge-thickness-thick{stroke-width:3.5px;}#my-svg .edge-pattern-solid{stroke-dasharray:0;}#my-svg .edge-thickness-invisible{stroke-width:0;fill:none;}#my-svg .edge-pattern-dashed{stroke-dasharray:3;}#my-svg .edge-pattern-dotted{stroke-dasharray:2;}#my-svg .marker{fill:#457b9d;stroke:#457b9d;}#my-svg .marker.cross{stroke:#457b9d;}#my-svg svg{font-family:"trebuchet ms",verdana,arial,sans-serif;font-size:16px;}#my-svg p{margin:0;}#my-svg defs [id$="-barbEnd"]{fill:#333333;stroke:#333333;}#my-svg g.stateGroup text{fill:#9370DB;stroke:none;font-size:10px;}#my-svg g.stateGroup text{fill:#333;stroke:none;font-size:10px;}#my-svg g.stateGroup .state-title{font-weight:bolder;fill:#131300;}#my-svg g.stateGroup rect{fill:#ECECFF;stroke:#9370DB;}#my-svg g.stateGroup line{stroke:#457b9d;stroke-width:1;}#my-svg .transition{stroke:#333333;stroke-width:1;fill:none;}#my-svg .stateGroup .composit{fill:white;border-bottom:1px;}#my-svg .stateGroup .alt-composit{fill:#e0e0e0;border-bottom:1px;}#my-svg .state-note{stroke:#aaaa33;fill:#fff5ad;}#my-svg .state-note text{fill:black;stroke:none;font-size:10px;}#my-svg .stateLabel .box{stroke:none;stroke-width:0;fill:#ECECFF;opacity:0.5;}#my-svg .edgeLabel .label rect{fill:#ECECFF;opacity:0.5;}#my-svg .edgeLabel{background-color:rgba(232,232,232, 0.8);text-align:center;}#my-svg .edgeLabel p{background-color:rgba(232,232,232, 0.8);}#my-svg .edgeLabel rect{opacity:0.5;background-color:rgba(232,232,232, 0.8);fill:rgba(232,232,232, 0.8);}#my-svg .edgeLabel .label text{fill:#333;}#my-svg .label div .edgeLabel{color:#333;}#my-svg .stateLabel text{fill:#131300;font-size:10px;font-weight:bold;}#my-svg .node circle.state-start{fill:#457b9d;stroke:#457b9d;}#my-svg .node .fork-join{fill:#457b9d;stroke:#457b9d;}#my-svg .node circle.state-end{fill:#9370DB;stroke:white;stroke-width:1.5;}#my-svg .end-state-inner{fill:white;stroke-width:1.5;}#my-svg .node rect{fill:#ECECFF;stroke:#9370DB;stroke-width:1px;}#my-svg .node polygon{fill:#ECECFF;stroke:#9370DB;stroke-width:1px;}#my-svg [id$="-barbEnd"]{fill:#457b9d;}#my-svg .statediagram-cluster rect{fill:#ECECFF;stroke:#9370DB;stroke-width:1px;}#my-svg .cluster-label,#my-svg .nodeLabel{color:#131300;}#my-svg .statediagram-cluster rect.outer{rx:5px;ry:5px;}#my-svg .statediagram-state .divider{stroke:#9370DB;}#my-svg .statediagram-state .title-state{rx:5px;ry:5px;}#my-svg .statediagram-cluster.statediagram-cluster .inner{fill:white;}#my-svg .statediagram-cluster.statediagram-cluster-alt .inner{fill:#f0f0f0;}#my-svg .statediagram-cluster .inner{rx:0;ry:0;}#my-svg .statediagram-state rect.basic{rx:5px;ry:5px;}#my-svg .statediagram-state rect.divider{stroke-dasharray:10,10;fill:#f0f0f0;}#my-svg .note-edge{stroke-dasharray:5;}#my-svg .statediagram-note rect{fill:#fff5ad;stroke:#aaaa33;stroke-width:1px;rx:0;ry:0;}#my-svg .statediagram-note rect{fill:#fff5ad;stroke:#aaaa33;stroke-width:1px;rx:0;ry:0;}#my-svg .statediagram-note text{fill:black;}#my-svg .statediagram-note .nodeLabel{color:black;}#my-svg .statediagram .edgeLabel{color:red;}#my-svg [id$="-dependencyStart"],#my-svg [id$="-dependencyEnd"]{fill:#457b9d;stroke:#457b9d;stroke-width:1;}#my-svg .statediagramTitleText{text-anchor:middle;font-size:18px;fill:#333;}#my-svg [data-look="neo"].statediagram-cluster rect{fill:#ECECFF;stroke:#9370DB;stroke-width:1;}#my-svg [data-look="neo"].statediagram-cluster rect.outer{rx:5px;ry:5px;filter:drop-shadow(1px 2px 2px rgba(185, 185, 185, 1));}#my-svg .node .neo-node{stroke:#9370DB;}#my-svg [data-look="neo"].node rect,#my-svg [data-look="neo"].cluster rect,#my-svg [data-look="neo"].node polygon{stroke:#9370DB;filter:drop-shadow(1px 2px 2px rgba(185, 185, 185, 1));}#my-svg [data-look="neo"].swimlane.cluster rect{filter:none;}#my-svg [data-look="neo"].node path{stroke:#9370DB;stroke-width:1px;}#my-svg [data-look="neo"].node .outer-path{filter:drop-shadow(1px 2px 2px rgba(185, 185, 185, 1));}#my-svg [data-look="neo"].node .neo-line path{stroke:#9370DB;filter:none;}#my-svg [data-look="neo"].node circle{stroke:#9370DB;filter:drop-shadow(1px 2px 2px rgba(185, 185, 185, 1));}#my-svg [data-look="neo"].node circle .state-start{fill:#000000;}#my-svg [data-look="neo"].icon-shape .icon{fill:#9370DB;filter:drop-shadow(1px 2px 2px rgba(185, 185, 185, 1));}#my-svg [data-look="neo"].icon-shape .icon-neo path{stroke:#9370DB;filter:drop-shadow(1px 2px 2px rgba(185, 185, 185, 1));}#my-svg :root{--mermaid-font-family:"trebuchet ms",verdana,arial,sans-serif;}</style><g><defs><marker id="my-svg_stateDiagram-barbEnd" refX="19" refY="7" markerWidth="20" markerHeight="14" markerUnits="userSpaceOnUse" orient="auto"><path d="M 19,7 L9,13 L14,7 L9,1 Z"/></marker></defs><g class="root"><g class="clusters"><g class="note-cluster" id="my-svg-state-HEALTHY----parent-21"><rect x="8" y="866" width="278.71875" height="200" fill="none"/></g><g class="note-cluster" id="my-svg-state-DEGRADED----parent-22"><rect x="156.71875" y="1188" width="300" height="176" fill="none"/></g><g class="note-cluster" id="my-svg-state-UNHEALTHY----parent-23"><rect x="340.453125" y="1486" width="272.53125" height="152" fill="none"/></g></g><g class="edgePaths"><path d="M1442.383,22L1442.383,30.167C1442.383,38.333,1442.383,54.667,1442.383,71C1442.383,87.333,1442.383,103.667,1442.383,111.833L1442.383,120" id="my-svg-edge0" class="edge-thickness-normal edge-pattern-solid transition" style="fill:none;;;fill:none" data-edge="true" data-et="edge" data-id="edge0" data-points="W3sieCI6MTQ0Mi4zODI4MTI1LCJ5IjoyMn0seyJ4IjoxNDQyLjM4MjgxMjUsInkiOjcxfSx7IngiOjE0NDIuMzgyODEyNSwieSI6MTIwfV0=" data-look="classic" marker-end="url(#my-svg_stateDiagram-barbEnd)"/><path d="M1442.383,160L1442.383,168.167C1442.383,176.333,1442.383,192.667,1442.383,209C1442.383,225.333,1442.383,241.667,1442.383,249.833L1442.383,258" id="my-svg-edge1" class="edge-thickness-normal edge-pattern-solid transition" style="fill:none;;;fill:none" data-edge="true" data-et="edge" data-id="edge1" data-points="W3sieCI6MTQ0Mi4zODI4MTI1LCJ5IjoxNjB9LHsieCI6MTQ0Mi4zODI4MTI1LCJ5IjoyMDl9LHsieCI6MTQ0Mi4zODI4MTI1LCJ5IjoyNTh9XQ==" data-look="classic" marker-end="url(#my-svg_stateDiagram-barbEnd)"/><path d="M1378.185,298L1358.39,304.167C1338.596,310.333,1299.007,322.667,1279.212,335C1259.418,347.333,1259.418,359.667,1259.418,365.833L1259.418,372" id="my-svg-edge2" class="edge-thickness-normal edge-pattern-solid transition" style="fill:none;;;fill:none" data-edge="true" data-et="edge" data-id="edge2" data-points="W3sieCI6MTM3OC4xODQ2MjE3MTA1MjYyLCJ5IjoyOTh9LHsieCI6MTI1OS40MTc5Njg3NSwieSI6MzM1fSx7IngiOjEyNTkuNDE3OTY4NzUsInkiOjM3Mn1d" data-look="classic" marker-end="url(#my-svg_stateDiagram-barbEnd)"/><path d="M1521.953,292.555L1560.626,299.629C1599.298,306.704,1676.643,320.852,1715.316,337.426C1753.988,354,1753.988,373,1753.988,396C1753.988,419,1753.988,446,1753.988,473.667C1753.988,501.333,1753.988,529.667,1753.988,558C1753.988,586.333,1753.988,614.667,1743.746,639C1733.503,663.333,1713.018,683.667,1702.775,693.833L1692.532,704" id="my-svg-edge3" class="edge-thickness-normal edge-pattern-solid transition" style="fill:none;;;fill:none" data-edge="true" data-et="edge" data-id="edge3" data-points="W3sieCI6MTUyMS45NTMxMjUsInkiOjI5Mi41NTUyODk1MTYyNDAyNH0seyJ4IjoxNzUzLjk4ODI4MTI1LCJ5IjozMzV9LHsieCI6MTc1My45ODgyODEyNSwieSI6MzkyfSx7IngiOjE3NTMuOTg4MjgxMjUsInkiOjQ3M30seyJ4IjoxNzUzLjk4ODI4MTI1LCJ5Ijo1NTh9LHsieCI6MTc1My45ODgyODEyNSwieSI6NjQzfSx7IngiOjE2OTIuNTMyMzEwOTU2NzksInkiOjcwNH1d" data-look="classic" marker-end="url(#my-svg_stateDiagram-barbEnd)"/><path d="M1236.861,412L1225.395,422.167C1213.928,432.333,1190.995,452.667,1179.529,473.667C1168.063,494.667,1168.063,516.333,1168.063,527.167L1168.063,538" id="my-svg-edge4" class="edge-thickness-normal edge-pattern-solid transition" style="fill:none;;;fill:none" data-edge="true" data-et="edge" data-id="edge4" data-points="W3sieCI6MTIzNi44NjEwNjI4ODU4MDI1LCJ5Ijo0MTJ9LHsieCI6MTE2OC4wNjI1LCJ5Ijo0NzN9LHsieCI6MTE2OC4wNjI1LCJ5Ijo1Mzh9XQ==" data-look="classic" marker-end="url(#my-svg_stateDiagram-barbEnd)"/><path d="M1347.434,411.11L1394.941,421.425C1442.449,431.74,1537.465,452.37,1584.973,476.852C1632.48,501.333,1632.48,529.667,1632.48,558C1632.48,586.333,1632.48,614.667,1637.489,639C1642.497,663.333,1652.514,683.667,1657.522,693.833L1662.53,704" id="my-svg-edge5" class="edge-thickness-normal edge-pattern-solid transition" style="fill:none;;;fill:none" data-edge="true" data-et="edge" data-id="edge5" data-points="W3sieCI6MTM0Ny40MzM1OTM3NSwieSI6NDExLjExMDExMDU3MTI4NDk2fSx7IngiOjE2MzIuNDgwNDY4NzUsInkiOjQ3M30seyJ4IjoxNjMyLjQ4MDQ2ODc1LCJ5Ijo1NTh9LHsieCI6MTYzMi40ODA0Njg3NSwieSI6NjQzfSx7IngiOjE2NjIuNTMwMzgxOTQ0NDQ0MywieSI6NzA0fV0=" data-look="classic" marker-end="url(#my-svg_stateDiagram-barbEnd)"/><path d="M1672.383,744L1672.383,754.167C1672.383,764.333,1672.383,784.667,1672.383,805C1672.383,825.333,1672.383,845.667,1672.383,872.5C1672.383,899.333,1672.383,932.667,1672.383,966C1672.383,999.333,1672.383,1032.667,1672.383,1059.5C1672.383,1086.333,1672.383,1106.667,1672.383,1127C1672.383,1147.333,1672.383,1167.667,1672.383,1192.5C1672.383,1217.333,1672.383,1246.667,1672.383,1276C1672.383,1305.333,1672.383,1334.667,1672.383,1359.5C1672.383,1384.333,1672.383,1404.667,1672.383,1425C1672.383,1445.333,1672.383,1465.667,1672.383,1488.5C1672.383,1511.333,1672.383,1536.667,1672.383,1562C1672.383,1587.333,1672.383,1612.667,1672.383,1635.5C1672.383,1658.333,1672.383,1678.667,1672.383,1702.333C1672.383,1726,1672.383,1753,1672.383,1778C1672.383,1803,1672.383,1826,1672.383,1849C1672.383,1872,1672.383,1895,1672.383,1916C1672.383,1937,1672.383,1956,1653.23,1972.436C1634.076,1988.871,1595.77,2002.743,1576.616,2009.679L1557.463,2016.614" id="my-svg-edge6" class="edge-thickness-normal edge-pattern-solid transition" style="fill:none;;;fill:none" data-edge="true" data-et="edge" data-id="edge6" data-points="W3sieCI6MTY3Mi4zODI4MTI1LCJ5Ijo3NDR9LHsieCI6MTY3Mi4zODI4MTI1LCJ5Ijo4MDV9LHsieCI6MTY3Mi4zODI4MTI1LCJ5Ijo4NjZ9LHsieCI6MTY3Mi4zODI4MTI1LCJ5Ijo5NjZ9LHsieCI6MTY3Mi4zODI4MTI1LCJ5IjoxMDY2fSx7IngiOjE2NzIuMzgyODEyNSwieSI6MTEyN30seyJ4IjoxNjcyLjM4MjgxMjUsInkiOjExODh9LHsieCI6MTY3Mi4zODI4MTI1LCJ5IjoxMjc2fSx7IngiOjE2NzIuMzgyODEyNSwieSI6MTM2NH0seyJ4IjoxNjcyLjM4MjgxMjUsInkiOjE0MjV9LHsieCI6MTY3Mi4zODI4MTI1LCJ5IjoxNDg2fSx7IngiOjE2NzIuMzgyODEyNSwieSI6MTU2Mn0seyJ4IjoxNjcyLjM4MjgxMjUsInkiOjE2Mzh9LHsieCI6MTY3Mi4zODI4MTI1LCJ5IjoxNjk5fSx7IngiOjE2NzIuMzgyODEyNSwieSI6MTc4MH0seyJ4IjoxNjcyLjM4MjgxMjUsInkiOjE4NDl9LHsieCI6MTY3Mi4zODI4MTI1LCJ5IjoxOTE4fSx7IngiOjE2NzIuMzgyODEyNSwieSI6MTk3NX0seyJ4IjoxNTU3LjQ2MzAxMDAyMTIyMTQsInkiOjIwMTYuNjE0MzcxOTkwMDAwOH1d" data-look="classic" marker-end="url(#my-svg_stateDiagram-barbEnd)"/><path d="M1145.313,578L1132.991,588.833C1120.669,599.667,1096.024,621.333,1083.701,642.333C1071.379,663.333,1071.379,683.667,1071.379,693.833L1071.379,704" id="my-svg-edge7" class="edge-thickness-normal edge-pattern-solid transition" style="fill:none;;;fill:none" data-edge="true" data-et="edge" data-id="edge7" data-points="W3sieCI6MTE0NS4zMTM0MTkxMTc2NDcsInkiOjU3OH0seyJ4IjoxMDcxLjM3ODkwNjI1LCJ5Ijo2NDN9LHsieCI6MTA3MS4zNzg5MDYyNSwieSI6NzA0fV0=" data-look="classic" marker-end="url(#my-svg_stateDiagram-barbEnd)"/><path d="M1215.773,570.426L1262.218,582.521C1308.663,594.617,1401.552,618.809,1470.331,641.071C1539.11,663.333,1583.778,683.667,1606.112,693.833L1628.447,704" id="my-svg-edge8" class="edge-thickness-normal edge-pattern-solid transition" style="fill:none;;;fill:none" data-edge="true" data-et="edge" data-id="edge8" data-points="W3sieCI6MTIxNS43NzM0Mzc1LCJ5Ijo1NzAuNDI1NTI2MzEyNjM5OX0seyJ4IjoxNDk0LjQ0MTQwNjI1LCJ5Ijo2NDN9LHsieCI6MTYyOC40NDY2NjI4MDg2NDIsInkiOjcwNH1d" data-look="classic" marker-end="url(#my-svg_stateDiagram-barbEnd)"/><path d="M1089.059,744L1098.047,754.167C1107.034,764.333,1125.009,784.667,1133.997,805C1142.984,825.333,1142.984,845.667,1128.318,869.167C1113.651,892.667,1084.318,919.333,1069.651,932.667L1054.984,946" id="my-svg-edge9" class="edge-thickness-normal edge-pattern-solid transition" style="fill:none;;;fill:none" data-edge="true" data-et="edge" data-id="edge9" data-points="W3sieCI6MTA4OS4wNTkyNjg5MDQzMjEsInkiOjc0NH0seyJ4IjoxMTQyLjk4NDM3NSwieSI6ODA1fSx7IngiOjExNDIuOTg0Mzc1LCJ5Ijo4NjZ9LHsieCI6MTA1NC45ODQzNzUsInkiOjk0Nn1d" data-look="classic" marker-end="url(#my-svg_stateDiagram-barbEnd)"/><path d="M1115.684,739.895L1145.929,750.746C1176.174,761.597,1236.665,783.298,1266.911,804.316C1297.156,825.333,1297.156,845.667,1297.156,872.5C1297.156,899.333,1297.156,932.667,1297.156,966C1297.156,999.333,1297.156,1032.667,1297.156,1059.5C1297.156,1086.333,1297.156,1106.667,1297.156,1127C1297.156,1147.333,1297.156,1167.667,1275.994,1189.167C1254.831,1210.667,1212.506,1233.333,1191.344,1244.667L1170.181,1256" id="my-svg-edge10" class="edge-thickness-normal edge-pattern-solid transition" style="fill:none;;;fill:none" data-edge="true" data-et="edge" data-id="edge10" data-points="W3sieCI6MTExNS42ODM1OTM3NSwieSI6NzM5Ljg5NDc3MzI2NTk3MzR9LHsieCI6MTI5Ny4xNTYyNSwieSI6ODA1fSx7IngiOjEyOTcuMTU2MjUsInkiOjg2Nn0seyJ4IjoxMjk3LjE1NjI1LCJ5Ijo5NjZ9LHsieCI6MTI5Ny4xNTYyNSwieSI6MTA2Nn0seyJ4IjoxMjk3LjE1NjI1LCJ5IjoxMTI3fSx7IngiOjEyOTcuMTU2MjUsInkiOjExODh9LHsieCI6MTE3MC4xODE0NjMwNjgxODE4LCJ5IjoxMjU2fV0=" data-look="classic" marker-end="url(#my-svg_stateDiagram-barbEnd)"/><path d="M1115.684,731.874L1184.262,744.061C1252.841,756.249,1389.999,780.625,1458.577,802.979C1527.156,825.333,1527.156,845.667,1527.156,872.5C1527.156,899.333,1527.156,932.667,1527.156,966C1527.156,999.333,1527.156,1032.667,1527.156,1059.5C1527.156,1086.333,1527.156,1106.667,1527.156,1127C1527.156,1147.333,1527.156,1167.667,1527.156,1192.5C1527.156,1217.333,1527.156,1246.667,1527.156,1276C1527.156,1305.333,1527.156,1334.667,1527.156,1359.5C1527.156,1384.333,1527.156,1404.667,1527.156,1425C1527.156,1445.333,1527.156,1465.667,1515.517,1485.167C1503.879,1504.667,1480.601,1523.333,1468.962,1532.667L1457.323,1542" id="my-svg-edge11" class="edge-thickness-normal edge-pattern-solid transition" style="fill:none;;;fill:none" data-edge="true" data-et="edge" data-id="edge11" data-points="W3sieCI6MTExNS42ODM1OTM3NSwieSI6NzMxLjg3Mzc1NjIwMjkxNTd9LHsieCI6MTUyNy4xNTYyNSwieSI6ODA1fSx7IngiOjE1MjcuMTU2MjUsInkiOjg2Nn0seyJ4IjoxNTI3LjE1NjI1LCJ5Ijo5NjZ9LHsieCI6MTUyNy4xNTYyNSwieSI6MTA2Nn0seyJ4IjoxNTI3LjE1NjI1LCJ5IjoxMTI3fSx7IngiOjE1MjcuMTU2MjUsInkiOjExODh9LHsieCI6MTUyNy4xNTYyNSwieSI6MTI3Nn0seyJ4IjoxNTI3LjE1NjI1LCJ5IjoxMzY0fSx7IngiOjE1MjcuMTU2MjUsInkiOjE0MjV9LHsieCI6MTUyNy4xNTYyNSwieSI6MTQ4Nn0seyJ4IjoxNDU3LjMyMzE5MDc4OTQ3MzgsInkiOjE1NDJ9XQ==" data-look="classic" marker-end="url(#my-svg_stateDiagram-barbEnd)"/><path d="M1010.984,946L996.318,932.667C981.651,919.333,952.318,892.667,937.651,869.167C922.984,845.667,922.984,825.333,941.61,805C960.236,784.667,997.487,764.333,1016.113,754.167L1034.738,744" id="my-svg-edge12" class="edge-thickness-normal edge-pattern-solid transition" style="fill:none;;;fill:none" data-edge="true" data-et="edge" data-id="edge12" data-points="W3sieCI6MTAxMC45ODQzNzUsInkiOjk0Nn0seyJ4Ijo5MjIuOTg0Mzc1LCJ5Ijo4NjZ9LHsieCI6OTIyLjk4NDM3NSwieSI6ODA1fSx7IngiOjEwMzQuNzM4MjgxMjUsInkiOjc0NH1d" data-look="classic" marker-end="url(#my-svg_stateDiagram-barbEnd)"/><path d="M1032.984,986L1032.984,999.333C1032.984,1012.667,1032.984,1039.333,1032.984,1062.833C1032.984,1086.333,1032.984,1106.667,1032.984,1127C1032.984,1147.333,1032.984,1167.667,1045.844,1189.167C1058.704,1210.667,1084.423,1233.333,1097.283,1244.667L1110.142,1256" id="my-svg-edge13" class="edge-thickness-normal edge-pattern-solid transition" style="fill:none;;;fill:none" data-edge="true" data-et="edge" data-id="edge13" data-points="W3sieCI6MTAzMi45ODQzNzUsInkiOjk4Nn0seyJ4IjoxMDMyLjk4NDM3NSwieSI6MTA2Nn0seyJ4IjoxMDMyLjk4NDM3NSwieSI6MTEyN30seyJ4IjoxMDMyLjk4NDM3NSwieSI6MTE4OH0seyJ4IjoxMTEwLjE0MjQwMDU2ODE4MTgsInkiOjEyNTZ9XQ==" data-look="classic" marker-end="url(#my-svg_stateDiagram-barbEnd)"/><path d="M1123.642,1296L1118.432,1307.333C1113.222,1318.667,1102.803,1341.333,1097.593,1362.833C1092.383,1384.333,1092.383,1404.667,1092.383,1425C1092.383,1445.333,1092.383,1465.667,1056.014,1485.705C1019.646,1505.743,946.909,1525.486,910.54,1535.357L874.172,1545.229" id="my-svg-edge14" class="edge-thickness-normal edge-pattern-solid transition" style="fill:none;;;fill:none" data-edge="true" data-et="edge" data-id="edge14" data-points="W3sieCI6MTEyMy42NDIwNDU0NTQ1NDU1LCJ5IjoxMjk2fSx7IngiOjEwOTIuMzgyODEyNSwieSI6MTM2NH0seyJ4IjoxMDkyLjM4MjgxMjUsInkiOjE0MjV9LHsieCI6MTA5Mi4zODI4MTI1LCJ5IjoxNDg2fSx7IngiOjg3NC4xNzE4NzUsInkiOjE1NDUuMjI4NjgzMDM1NzE0M31d" data-look="classic" marker-end="url(#my-svg_stateDiagram-barbEnd)"/><path d="M1188.695,1293.919L1225.105,1305.599C1261.516,1317.28,1334.336,1340.64,1370.746,1362.487C1407.156,1384.333,1407.156,1404.667,1407.156,1425C1407.156,1445.333,1407.156,1465.667,1410.254,1485.167C1413.352,1504.667,1419.548,1523.333,1422.646,1532.667L1425.744,1542" id="my-svg-edge15" class="edge-thickness-normal edge-pattern-solid transition" style="fill:none;;;fill:none" data-edge="true" data-et="edge" data-id="edge15" data-points="W3sieCI6MTE4OC42OTUzMTI1LCJ5IjoxMjkzLjkxOTI4OTE1MjE2Nn0seyJ4IjoxNDA3LjE1NjI1LCJ5IjoxMzY0fSx7IngiOjE0MDcuMTU2MjUsInkiOjE0MjV9LHsieCI6MTQwNy4xNTYyNSwieSI6MTQ4Nn0seyJ4IjoxNDI1Ljc0NDI0MzQyMTA1MjcsInkiOjE1NDJ9XQ==" data-look="classic" marker-end="url(#my-svg_stateDiagram-barbEnd)"/><path d="M796.752,1542L789.457,1532.667C782.163,1523.333,767.573,1504.667,760.279,1485.167C752.984,1465.667,752.984,1445.333,752.984,1425C752.984,1404.667,752.984,1384.333,752.984,1359.5C752.984,1334.667,752.984,1305.333,752.984,1276C752.984,1246.667,752.984,1217.333,752.984,1192.5C752.984,1167.667,752.984,1147.333,752.984,1127C752.984,1106.667,752.984,1086.333,752.984,1059.5C752.984,1032.667,752.984,999.333,752.984,966C752.984,932.667,752.984,899.333,752.984,872.5C752.984,845.667,752.984,825.333,798.666,803.545C844.348,781.757,935.711,758.514,981.393,746.893L1027.074,735.271" id="my-svg-edge16" class="edge-thickness-normal edge-pattern-solid transition" style="fill:none;;;fill:none" data-edge="true" data-et="edge" data-id="edge16" data-points="W3sieCI6Nzk2Ljc1MTY0NDczNjg0MjEsInkiOjE1NDJ9LHsieCI6NzUyLjk4NDM3NSwieSI6MTQ4Nn0seyJ4Ijo3NTIuOTg0Mzc1LCJ5IjoxNDI1fSx7IngiOjc1Mi45ODQzNzUsInkiOjEzNjR9LHsieCI6NzUyLjk4NDM3NSwieSI6MTI3Nn0seyJ4Ijo3NTIuOTg0Mzc1LCJ5IjoxMTg4fSx7IngiOjc1Mi45ODQzNzUsInkiOjExMjd9LHsieCI6NzUyLjk4NDM3NSwieSI6MTA2Nn0seyJ4Ijo3NTIuOTg0Mzc1LCJ5Ijo5NjZ9LHsieCI6NzUyLjk4NDM3NSwieSI6ODY2fSx7IngiOjc1Mi45ODQzNzUsInkiOjgwNX0seyJ4IjoxMDI3LjA3NDIxODc1LCJ5Ijo3MzUuMjcxMTcyNTA4NTU3NH1d" data-look="classic" marker-end="url(#my-svg_stateDiagram-barbEnd)"/><path d="M765.173,1542L743.141,1532.667C721.11,1523.333,677.047,1504.667,655.016,1485.167C632.984,1465.667,632.984,1445.333,632.984,1425C632.984,1404.667,632.984,1384.333,706.983,1361.139C780.982,1337.945,928.979,1311.889,1002.978,1298.862L1076.977,1285.834" id="my-svg-edge17" class="edge-thickness-normal edge-pattern-solid transition" style="fill:none;;;fill:none" data-edge="true" data-et="edge" data-id="edge17" data-points="W3sieCI6NzY1LjE3MjY5NzM2ODQyMSwieSI6MTU0Mn0seyJ4Ijo2MzIuOTg0Mzc1LCJ5IjoxNDg2fSx7IngiOjYzMi45ODQzNzUsInkiOjE0MjV9LHsieCI6NjMyLjk4NDM3NSwieSI6MTM2NH0seyJ4IjoxMDc2Ljk3NjU2MjUsInkiOjEyODUuODM0MTY5NTE5MDc1OX1d" data-look="classic" marker-end="url(#my-svg_stateDiagram-barbEnd)"/><path d="M1432.383,1582L1432.383,1591.333C1432.383,1600.667,1432.383,1619.333,1432.383,1638.833C1432.383,1658.333,1432.383,1678.667,1432.383,1699C1432.383,1719.333,1432.383,1739.667,1432.383,1749.833L1432.383,1760" id="my-svg-edge18" class="edge-thickness-normal edge-pattern-solid transition" style="fill:none;;;fill:none" data-edge="true" data-et="edge" data-id="edge18" data-points="W3sieCI6MTQzMi4zODI4MTI1LCJ5IjoxNTgyfSx7IngiOjE0MzIuMzgyODEyNSwieSI6MTYzOH0seyJ4IjoxNDMyLjM4MjgxMjUsInkiOjE2OTl9LHsieCI6MTQzMi4zODI4MTI1LCJ5IjoxNzYwfV0=" data-look="classic" marker-end="url(#my-svg_stateDiagram-barbEnd)"/><path d="M1432.383,1800L1432.383,1808.167C1432.383,1816.333,1432.383,1832.667,1432.383,1849C1432.383,1865.333,1432.383,1881.667,1432.383,1889.833L1432.383,1898" id="my-svg-edge19" class="edge-thickness-normal edge-pattern-solid transition" style="fill:none;;;fill:none" data-edge="true" data-et="edge" data-id="edge19" data-points="W3sieCI6MTQzMi4zODI4MTI1LCJ5IjoxODAwfSx7IngiOjE0MzIuMzgyODEyNSwieSI6MTg0OX0seyJ4IjoxNDMyLjM4MjgxMjUsInkiOjE4OTh9XQ==" data-look="classic" marker-end="url(#my-svg_stateDiagram-barbEnd)"/><path d="M1432.383,1938L1432.383,1944.167C1432.383,1950.333,1432.383,1962.667,1451.037,1975.76C1469.691,1988.854,1506.999,2002.707,1525.653,2009.634L1544.307,2016.561" id="my-svg-edge20" class="edge-thickness-normal edge-pattern-solid transition" style="fill:none;;;fill:none" data-edge="true" data-et="edge" data-id="edge20" data-points="W3sieCI6MTQzMi4zODI4MTI1LCJ5IjoxOTM4fSx7IngiOjE0MzIuMzgyODEyNSwieSI6MTk3NX0seyJ4IjoxNTQ0LjMwNjU4NjQyMzg1NTIsInkiOjIwMTYuNTYwOTM0NTc3NjQ1Nn1d" data-look="classic" marker-end="url(#my-svg_stateDiagram-barbEnd)"/><path d="M1027.074,727.884L880.455,740.736C733.836,753.589,440.598,779.295,293.979,802.314C147.359,825.333,147.359,845.667,147.359,860C147.359,874.333,147.359,882.667,147.359,886.833L147.359,891" id="my-svg-HEALTHY-HEALTHY----note-21" class="edge-thickness-normal edge-pattern-solid transition note-edge" style="fill:none;;;fill:none" data-edge="true" data-et="edge" data-id="HEALTHY-HEALTHY----note-21" data-points="W3sieCI6MTAyNy4wNzQyMTg3NSwieSI6NzI3Ljg4Mzc3MDM4MTYxMjN9LHsieCI6MTQ3LjM1OTM3NSwieSI6ODA1fSx7IngiOjE0Ny4zNTkzNzUsInkiOjg2Nn0seyJ4IjoxNDcuMzU5Mzc1LCJ5Ijo4OTF9XQ==" data-look="classic"/><path d="M979.641,973.345L867.487,988.787C755.333,1004.23,531.026,1035.115,418.872,1060.724C306.719,1086.333,306.719,1106.667,306.719,1127C306.719,1147.333,306.719,1167.667,306.719,1182C306.719,1196.333,306.719,1204.667,306.719,1208.833L306.719,1213" id="my-svg-DEGRADED-DEGRADED----note-22" class="edge-thickness-normal edge-pattern-solid transition note-edge" style="fill:none;;;fill:none" data-edge="true" data-et="edge" data-id="DEGRADED-DEGRADED----note-22" data-points="W3sieCI6OTc5LjY0MDYyNSwieSI6OTczLjM0NDkzNjY0MDc3OH0seyJ4IjozMDYuNzE4NzUsInkiOjEwNjZ9LHsieCI6MzA2LjcxODc1LCJ5IjoxMTI3fSx7IngiOjMwNi43MTg3NSwieSI6MTE4OH0seyJ4IjozMDYuNzE4NzUsInkiOjEyMTN9XQ==" data-look="classic"/><path d="M1076.977,1283.492L976.934,1296.91C876.891,1310.328,676.805,1337.164,576.762,1360.749C476.719,1384.333,476.719,1404.667,476.719,1425C476.719,1445.333,476.719,1465.667,476.719,1480C476.719,1494.333,476.719,1502.667,476.719,1506.833L476.719,1511" id="my-svg-UNHEALTHY-UNHEALTHY----note-23" class="edge-thickness-normal edge-pattern-solid transition note-edge" style="fill:none;;;fill:none" data-edge="true" data-et="edge" data-id="UNHEALTHY-UNHEALTHY----note-23" data-points="W3sieCI6MTA3Ni45NzY1NjI1LCJ5IjoxMjgzLjQ5MTk5MjQyNzAzOX0seyJ4Ijo0NzYuNzE4NzUsInkiOjEzNjR9LHsieCI6NDc2LjcxODc1LCJ5IjoxNDI1fSx7IngiOjQ3Ni43MTg3NSwieSI6MTQ4Nn0seyJ4Ijo0NzYuNzE4NzUsInkiOjE1MTF9XQ==" data-look="classic"/></g><g class="edgeLabels"><g class="edgeLabel" transform="translate(1442.3828125, 71)"><g class="label" data-id="edge0" transform="translate(-100, -24)"><foreignObject width="200" height="48"><div xmlns="http://www.w3.org/1999/xhtml" class="labelBkg" style="display: table; white-space: break-spaces; line-height: 1.5; max-width: 200px; text-align: center; width: 200px;"><span class="edgeLabel"><p>process start / pod scheduled</p></span></div></foreignObject></g></g><g class="edgeLabel" transform="translate(1442.3828125, 209)"><g class="label" data-id="edge1" transform="translate(-100, -24)"><foreignObject width="200" height="48"><div xmlns="http://www.w3.org/1999/xhtml" class="labelBkg" style="display: table; white-space: break-spaces; line-height: 1.5; max-width: 200px; text-align: center; width: 200px;"><span class="edgeLabel"><p>read config (env + config-service)</p></span></div></foreignObject></g></g><g class="edgeLabel" transform="translate(1259.41796875, 335)"><g class="label" data-id="edge2" transform="translate(-47.59375, -12)"><foreignObject width="95.1875" height="24"><div xmlns="http://www.w3.org/1999/xhtml" class="labelBkg" style="display: table-cell; white-space: nowrap; line-height: 1.5; max-width: 200px; text-align: center;"><span class="edgeLabel"><p>config loaded</p></span></div></foreignObject></g></g><g class="edgeLabel" transform="translate(1753.98828125, 473)"><g class="label" data-id="edge3" transform="translate(-80.0390625, -12)"><foreignObject width="160.078125" height="24"><div xmlns="http://www.w3.org/1999/xhtml" class="labelBkg" style="display: table-cell; white-space: nowrap; line-height: 1.5; max-width: 200px; text-align: center;"><span class="edgeLabel"><p>config invalid / missing</p></span></div></foreignObject></g></g><g class="edgeLabel" transform="translate(1168.0625, 473)"><g class="label" data-id="edge4" transform="translate(-100, -36)"><foreignObject width="200" height="72"><div xmlns="http://www.w3.org/1999/xhtml" class="labelBkg" style="display: table; white-space: break-spaces; line-height: 1.5; max-width: 200px; text-align: center; width: 200px;"><span class="edgeLabel"><p>all dependencies connected\n(DB, Redis, Kafka, SPIRE)</p></span></div></foreignObject></g></g><g class="edgeLabel" transform="translate(1632.48046875, 558)"><g class="label" data-id="edge5" transform="translate(-100, -24)"><foreignObject width="200" height="48"><div xmlns="http://www.w3.org/1999/xhtml" class="labelBkg" style="display: table; white-space: break-spaces; line-height: 1.5; max-width: 200px; text-align: center; width: 200px;"><span class="edgeLabel"><p>dependency connection failed\n(after 3 retries)</p></span></div></foreignObject></g></g><g class="edgeLabel" transform="translate(1672.3828125, 1562)"><g class="label" data-id="edge6" transform="translate(-100, -24)"><foreignObject width="200" height="48"><div xmlns="http://www.w3.org/1999/xhtml" class="labelBkg" style="display: table; white-space: break-spaces; line-height: 1.5; max-width: 200px; text-align: center; width: 200px;"><span class="edgeLabel"><p>process exits (CrashLoopBackOff)</p></span></div></foreignObject></g></g><g class="edgeLabel" transform="translate(1071.37890625, 643)"><g class="label" data-id="edge7" transform="translate(-100, -36)"><foreignObject width="200" height="72"><div xmlns="http://www.w3.org/1999/xhtml" class="labelBkg" style="display: table; white-space: break-spaces; line-height: 1.5; max-width: 200px; text-align: center; width: 200px;"><span class="edgeLabel"><p>HTTP /healthz returns 200\nreadiness probe passes</p></span></div></foreignObject></g></g><g class="edgeLabel" transform="translate(1426.349, 625.26646)"><g class="label" data-id="edge8" transform="translate(-73.3671875, -12)"><foreignObject width="146.734375" height="24"><div xmlns="http://www.w3.org/1999/xhtml" class="labelBkg" style="display: table-cell; white-space: nowrap; line-height: 1.5; max-width: 200px; text-align: center;"><span class="edgeLabel"><p>startup timeout (60s)</p></span></div></foreignObject></g></g><g class="edgeLabel" transform="translate(1142.984375, 805)"><g class="label" data-id="edge9" transform="translate(-100, -36)"><foreignObject width="200" height="72"><div xmlns="http://www.w3.org/1999/xhtml" class="labelBkg" style="display: table; white-space: break-spaces; line-height: 1.5; max-width: 200px; text-align: center; width: 200px;"><span class="edgeLabel"><p>partial failure detected\n(one dep slow/failing)</p></span></div></foreignObject></g></g><g class="edgeLabel" transform="translate(1297.15625, 966)"><g class="label" data-id="edge10" transform="translate(-100, -24)"><foreignObject width="200" height="48"><div xmlns="http://www.w3.org/1999/xhtml" class="labelBkg" style="display: table; white-space: break-spaces; line-height: 1.5; max-width: 200px; text-align: center; width: 200px;"><span class="edgeLabel"><p>critical failure\n(DB unreachable, OOM)</p></span></div></foreignObject></g></g><g class="edgeLabel" transform="translate(1527.15625, 1127)"><g class="label" data-id="edge11" transform="translate(-100, -36)"><foreignObject width="200" height="72"><div xmlns="http://www.w3.org/1999/xhtml" class="labelBkg" style="display: table; white-space: break-spaces; line-height: 1.5; max-width: 200px; text-align: center; width: 200px;"><span class="edgeLabel"><p>SIGTERM received\n(rolling update / scale down)</p></span></div></foreignObject></g></g><g class="edgeLabel" transform="translate(922.984375, 805)"><g class="label" data-id="edge12" transform="translate(-100, -24)"><foreignObject width="200" height="48"><div xmlns="http://www.w3.org/1999/xhtml" class="labelBkg" style="display: table; white-space: break-spaces; line-height: 1.5; max-width: 200px; text-align: center; width: 200px;"><span class="edgeLabel"><p>root cause resolved\n(dep recovers, circuit closes)</p></span></div></foreignObject></g></g><g class="edgeLabel" transform="translate(1032.984375, 1127)"><g class="label" data-id="edge13" transform="translate(-100, -24)"><foreignObject width="200" height="48"><div xmlns="http://www.w3.org/1999/xhtml" class="labelBkg" style="display: table; white-space: break-spaces; line-height: 1.5; max-width: 200px; text-align: center; width: 200px;"><span class="edgeLabel"><p>degradation worsens\n(error rate &gt; 50%)</p></span></div></foreignObject></g></g><g class="edgeLabel" transform="translate(1092.3828125, 1425)"><g class="label" data-id="edge14" transform="translate(-100, -36)"><foreignObject width="200" height="72"><div xmlns="http://www.w3.org/1999/xhtml" class="labelBkg" style="display: table; white-space: break-spaces; line-height: 1.5; max-width: 200px; text-align: center; width: 200px;"><span class="edgeLabel"><p>automatic recovery attempt\n(reconnect, cache clear)</p></span></div></foreignObject></g></g><g class="edgeLabel" transform="translate(1407.15625, 1425)"><g class="label" data-id="edge15" transform="translate(-100, -24)"><foreignObject width="200" height="48"><div xmlns="http://www.w3.org/1999/xhtml" class="labelBkg" style="display: table; white-space: break-spaces; line-height: 1.5; max-width: 200px; text-align: center; width: 200px;"><span class="edgeLabel"><p>liveness probe fails ×3\n(K8s kills pod)</p></span></div></foreignObject></g></g><g class="edgeLabel" transform="translate(752.984375, 1127)"><g class="label" data-id="edge16" transform="translate(-100, -36)"><foreignObject width="200" height="72"><div xmlns="http://www.w3.org/1999/xhtml" class="labelBkg" style="display: table; white-space: break-spaces; line-height: 1.5; max-width: 200px; text-align: center; width: 200px;"><span class="edgeLabel"><p>recovery successful\n(/healthz returns 200)</p></span></div></foreignObject></g></g><g class="edgeLabel" transform="translate(632.984375, 1425)"><g class="label" data-id="edge17" transform="translate(-100, -24)"><foreignObject width="200" height="48"><div xmlns="http://www.w3.org/1999/xhtml" class="labelBkg" style="display: table; white-space: break-spaces; line-height: 1.5; max-width: 200px; text-align: center; width: 200px;"><span class="edgeLabel"><p>recovery failed\n(after 3 attempts)</p></span></div></foreignObject></g></g><g class="edgeLabel" transform="translate(1432.3828125, 1699)"><g class="label" data-id="edge18" transform="translate(-100, -36)"><foreignObject width="200" height="72"><div xmlns="http://www.w3.org/1999/xhtml" class="labelBkg" style="display: table; white-space: break-spaces; line-height: 1.5; max-width: 200px; text-align: center; width: 200px;"><span class="edgeLabel"><p>stop accepting new requests\nderegister from load balancer</p></span></div></foreignObject></g></g><g class="edgeLabel" transform="translate(1432.3828125, 1849)"><g class="label" data-id="edge19" transform="translate(-100, -24)"><foreignObject width="200" height="48"><div xmlns="http://www.w3.org/1999/xhtml" class="labelBkg" style="display: table; white-space: break-spaces; line-height: 1.5; max-width: 200px; text-align: center; width: 200px;"><span class="edgeLabel"><p>in-flight requests drained\n(gracePeriod: 30s)</p></span></div></foreignObject></g></g><g class="edgeLabel" transform="translate(1432.3828125, 1975)"><g class="label" data-id="edge20" transform="translate(-53.359375, -12)"><foreignObject width="106.71875" height="24"><div xmlns="http://www.w3.org/1999/xhtml" class="labelBkg" style="display: table-cell; white-space: nowrap; line-height: 1.5; max-width: 200px; text-align: center;"><span class="edgeLabel"><p>process exits 0</p></span></div></foreignObject></g></g><g class="edgeLabel"><g class="label" data-id="HEALTHY-HEALTHY----note-21" transform="translate(0, 0)"><foreignObject width="0" height="0"><div xmlns="http://www.w3.org/1999/xhtml" class="labelBkg" style="display: table-cell; white-space: nowrap; line-height: 1.5; max-width: 200px; text-align: center;"><span class="edgeLabel"></span></div></foreignObject></g></g><g class="edgeLabel"><g class="label" data-id="DEGRADED-DEGRADED----note-22" transform="translate(0, 0)"><foreignObject width="0" height="0"><div xmlns="http://www.w3.org/1999/xhtml" class="labelBkg" style="display: table-cell; white-space: nowrap; line-height: 1.5; max-width: 200px; text-align: center;"><span class="edgeLabel"></span></div></foreignObject></g></g><g class="edgeLabel"><g class="label" data-id="UNHEALTHY-UNHEALTHY----note-23" transform="translate(0, 0)"><foreignObject width="0" height="0"><div xmlns="http://www.w3.org/1999/xhtml" class="labelBkg" style="display: table-cell; white-space: nowrap; line-height: 1.5; max-width: 200px; text-align: center;"><span class="edgeLabel"></span></div></foreignObject></g></g></g><g class="nodes"><g class="node default" id="my-svg-state-root_start-0" data-look="classic" transform="translate(1442.3828125, 15)"><circle class="state-start" r="7" width="14" height="14"/></g><g class="node  statediagram-state" id="my-svg-state-INITIALIZING-1" data-look="classic" transform="translate(1442.3828125, 140)"><rect class="basic label-container" style="" rx="5" ry="5" x="-56.453125" y="-20" width="112.90625" height="40"/><g class="label" style="" transform="translate(-48.453125, -12)"><rect/><foreignObject width="96.90625" height="24"><div xmlns="http://www.w3.org/1999/xhtml" style="display: table-cell; white-space: nowrap; line-height: 1.5; max-width: 200px; text-align: center;"><span class="nodeLabel markdown-node-label"><p>INITIALIZING</p></span></div></foreignObject></g></g><g class="node  statediagram-state" id="my-svg-state-LOADING_CONFIG-3" data-look="classic" transform="translate(1442.3828125, 278)"><rect class="basic label-container" style="" rx="5" ry="5" x="-79.5703125" y="-20" width="159.140625" height="40"/><g class="label" style="" transform="translate(-71.5703125, -12)"><rect/><foreignObject width="143.140625" height="24"><div xmlns="http://www.w3.org/1999/xhtml" style="display: table-cell; white-space: nowrap; line-height: 1.5; max-width: 200px; text-align: center;"><span class="nodeLabel markdown-node-label"><p>LOADING_CONFIG</p></span></div></foreignObject></g></g><g class="node  statediagram-state" id="my-svg-state-CONNECTING_DEPS-5" data-look="classic" transform="translate(1259.41796875, 392)"><rect class="basic label-container" style="" rx="5" ry="5" x="-88.015625" y="-20" width="176.03125" height="40"/><g class="label" style="" transform="translate(-80.015625, -12)"><rect/><foreignObject width="160.03125" height="24"><div xmlns="http://www.w3.org/1999/xhtml" style="display: table-cell; white-space: nowrap; line-height: 1.5; max-width: 200px; text-align: center;"><span class="nodeLabel markdown-node-label"><p>CONNECTING_DEPS</p></span></div></foreignObject></g></g><g class="node  statediagram-state" id="my-svg-state-INIT_FAILED-8" data-look="classic" transform="translate(1672.3828125, 724)"><rect class="basic label-container" style="" rx="5" ry="5" x="-55.125" y="-20" width="110.25" height="40"/><g class="label" style="" transform="translate(-47.125, -12)"><rect/><foreignObject width="94.25" height="24"><div xmlns="http://www.w3.org/1999/xhtml" style="display: table-cell; white-space: nowrap; line-height: 1.5; max-width: 200px; text-align: center;"><span class="nodeLabel markdown-node-label"><p>INIT_FAILED</p></span></div></foreignObject></g></g><g class="node  statediagram-state" id="my-svg-state-STARTING-8" data-look="classic" transform="translate(1168.0625, 558)"><rect class="basic label-container" style="" rx="5" ry="5" x="-47.7109375" y="-20" width="95.421875" height="40"/><g class="label" style="" transform="translate(-39.7109375, -12)"><rect/><foreignObject width="79.421875" height="24"><div xmlns="http://www.w3.org/1999/xhtml" style="display: table-cell; white-space: nowrap; line-height: 1.5; max-width: 200px; text-align: center;"><span class="nodeLabel markdown-node-label"><p>STARTING</p></span></div></foreignObject></g></g><g class="node default" id="my-svg-state-root_end-20" data-look="classic" transform="translate(1550.875, 2019)"><g class="outer-path"><path d="M7 0 C7 0.40517908122283747, 6.964012880168563 0.816513743121899, 6.893654271085456 1.2155372436685123 C6.823295662002349 1.6145607442151257, 6.716427752933756 2.013397210557766, 6.5778483455013586 2.394141003279681 C6.439268938068961 2.7748847960015954, 6.26476736710249 3.149104622578984, 6.062177826491071 3.4999999999999996 C5.859588285879653 3.8508953774210153, 5.622755194947063 4.189128084166967, 5.362311101832846 4.499513267805774 C5.10186700871863 4.809898451444582, 4.809898451444583 5.10186700871863, 4.499513267805775 5.362311101832846 C4.189128084166968 5.622755194947063, 3.8508953774210166 5.859588285879652, 3.500000000000001 6.06217782649107 C3.149104622578985 6.264767367102489, 2.7748847960015963 6.439268938068961, 2.3941410032796817 6.5778483455013586 C2.013397210557767 6.716427752933756, 1.6145607442151264 6.823295662002349, 1.2155372436685128 6.893654271085456 C0.8165137431218992 6.964012880168563, 0.4051790812228379 7, 4.286263797015736e-16 7 C-0.405179081222837 7, -0.8165137431218985 6.964012880168563, -1.2155372436685121 6.893654271085456 C-1.6145607442151257 6.823295662002349, -2.0133972105577667 6.716427752933756, -2.394141003279681 6.5778483455013586 C-2.774884796001595 6.439268938068961, -3.149104622578983 6.26476736710249, -3.4999999999999982 6.062177826491071 C-3.8508953774210135 5.859588285879653, -4.189128084166966 5.6227551949470636, -4.499513267805773 5.362311101832848 C-4.809898451444581 5.101867008718632, -5.101867008718628 4.809898451444586, -5.3623111018328435 4.499513267805779 C-5.622755194947059 4.189128084166971, -5.859588285879649 3.8508953774210206, -6.062177826491068 3.5000000000000053 C-6.264767367102486 3.14910462257899, -6.439268938068958 2.774884796001602, -6.577848345501356 2.394141003279688 C-6.716427752933754 2.0133972105577738, -6.823295662002347 1.614560744215134, -6.893654271085454 1.215537243668521 C-6.9640128801685615 0.816513743121908, -6.999999999999999 0.4051790812228472, -7 1.0183126166254463e-14 C-7.000000000000001 -0.40517908122282686, -6.964012880168565 -0.8165137431218878, -6.893654271085459 -1.215537243668501 C-6.823295662002352 -1.6145607442151142, -6.716427752933759 -2.0133972105577542, -6.577848345501363 -2.394141003279669 C-6.439268938068967 -2.7748847960015834, -6.264767367102496 -3.149104622578972, -6.062177826491078 -3.4999999999999876 C-5.859588285879661 -3.8508953774210033, -5.6227551949470715 -4.1891280841669545, -5.362311101832856 -4.499513267805763 C-5.10186700871864 -4.809898451444571, -4.809898451444594 -5.10186700871862, -4.499513267805787 -5.362311101832836 C-4.189128084166979 -5.622755194947053, -3.850895377421028 -5.859588285879643, -3.5000000000000133 -6.062177826491062 C-3.1491046225789985 -6.264767367102482, -2.774884796001611 -6.439268938068954, -2.3941410032796973 -6.577848345501353 C-2.0133972105577835 -6.716427752933752, -1.6145607442151435 -6.823295662002345, -1.2155372436685306 -6.893654271085453 C-0.8165137431219176 -6.9640128801685615, -0.40517908122285695 -6.999999999999999, -1.9937625952807352e-14 -7 C0.4051790812228171 -7.000000000000001, 0.8165137431218781 -6.964012880168565, 1.2155372436684913 -6.89365427108546 C1.6145607442151044 -6.823295662002354, 2.013397210557745 -6.716427752933763, 2.3941410032796595 -6.5778483455013665 C2.774884796001574 -6.43926893806897, 3.149104622578963 -6.2647673671025, 3.499999999999979 -6.062177826491083 C3.8508953774209953 -5.859588285879665, 4.189128084166947 -5.622755194947077, 4.499513267805756 -5.362311101832862 C4.809898451444564 -5.1018670087186475, 5.101867008718613 -4.809898451444602, 5.362311101832829 -4.499513267805796 C5.622755194947046 -4.189128084166989, 5.859588285879637 -3.8508953774210393, 6.062177826491056 -3.500000000000025 C6.2647673671024755 -3.1491046225790105, 6.439268938068949 -2.774884796001623, 6.577848345501348 -2.3941410032797092 C6.716427752933747 -2.0133972105577955, 6.823295662002342 -1.6145607442151562, 6.893654271085451 -1.2155372436685434 C6.96401288016856 -0.8165137431219307, 6.982275711847575 -0.2025895406114567, 7 -3.2800750208310675e-14 C7.017724288152425 0.2025895406113911, 7.017724288152424 -0.2025895406114242, 7 0" stroke="none" stroke-width="0" fill="#ECECFF" style=""/><path d="M7 0 C7 0.40517908122283747, 6.964012880168563 0.816513743121899, 6.893654271085456 1.2155372436685123 C6.823295662002349 1.6145607442151257, 6.716427752933756 2.013397210557766, 6.5778483455013586 2.394141003279681 C6.439268938068961 2.7748847960015954, 6.26476736710249 3.149104622578984, 6.062177826491071 3.4999999999999996 C5.859588285879653 3.8508953774210153, 5.622755194947063 4.189128084166967, 5.362311101832846 4.499513267805774 C5.10186700871863 4.809898451444582, 4.809898451444583 5.10186700871863, 4.499513267805775 5.362311101832846 C4.189128084166968 5.622755194947063, 3.8508953774210166 5.859588285879652, 3.500000000000001 6.06217782649107 C3.149104622578985 6.264767367102489, 2.7748847960015963 6.439268938068961, 2.3941410032796817 6.5778483455013586 C2.013397210557767 6.716427752933756, 1.6145607442151264 6.823295662002349, 1.2155372436685128 6.893654271085456 C0.8165137431218992 6.964012880168563, 0.4051790812228379 7, 4.286263797015736e-16 7 C-0.405179081222837 7, -0.8165137431218985 6.964012880168563, -1.2155372436685121 6.893654271085456 C-1.6145607442151257 6.823295662002349, -2.0133972105577667 6.716427752933756, -2.394141003279681 6.5778483455013586 C-2.774884796001595 6.439268938068961, -3.149104622578983 6.26476736710249, -3.4999999999999982 6.062177826491071 C-3.8508953774210135 5.859588285879653, -4.189128084166966 5.6227551949470636, -4.499513267805773 5.362311101832848 C-4.809898451444581 5.101867008718632, -5.101867008718628 4.809898451444586, -5.3623111018328435 4.499513267805779 C-5.622755194947059 4.189128084166971, -5.859588285879649 3.8508953774210206, -6.062177826491068 3.5000000000000053 C-6.264767367102486 3.14910462257899, -6.439268938068958 2.774884796001602, -6.577848345501356 2.394141003279688 C-6.716427752933754 2.0133972105577738, -6.823295662002347 1.614560744215134, -6.893654271085454 1.215537243668521 C-6.9640128801685615 0.816513743121908, -6.999999999999999 0.4051790812228472, -7 1.0183126166254463e-14 C-7.000000000000001 -0.40517908122282686, -6.964012880168565 -0.8165137431218878, -6.893654271085459 -1.215537243668501 C-6.823295662002352 -1.6145607442151142, -6.716427752933759 -2.0133972105577542, -6.577848345501363 -2.394141003279669 C-6.439268938068967 -2.7748847960015834, -6.264767367102496 -3.149104622578972, -6.062177826491078 -3.4999999999999876 C-5.859588285879661 -3.8508953774210033, -5.6227551949470715 -4.1891280841669545, -5.362311101832856 -4.499513267805763 C-5.10186700871864 -4.809898451444571, -4.809898451444594 -5.10186700871862, -4.499513267805787 -5.362311101832836 C-4.189128084166979 -5.622755194947053, -3.850895377421028 -5.859588285879643, -3.5000000000000133 -6.062177826491062 C-3.1491046225789985 -6.264767367102482, -2.774884796001611 -6.439268938068954, -2.3941410032796973 -6.577848345501353 C-2.0133972105577835 -6.716427752933752, -1.6145607442151435 -6.823295662002345, -1.2155372436685306 -6.893654271085453 C-0.8165137431219176 -6.9640128801685615, -0.40517908122285695 -6.999999999999999, -1.9937625952807352e-14 -7 C0.4051790812228171 -7.000000000000001, 0.8165137431218781 -6.964012880168565, 1.2155372436684913 -6.89365427108546 C1.6145607442151044 -6.823295662002354, 2.013397210557745 -6.716427752933763, 2.3941410032796595 -6.5778483455013665 C2.774884796001574 -6.43926893806897, 3.149104622578963 -6.2647673671025, 3.499999999999979 -6.062177826491083 C3.8508953774209953 -5.859588285879665, 4.189128084166947 -5.622755194947077, 4.499513267805756 -5.362311101832862 C4.809898451444564 -5.1018670087186475, 5.101867008718613 -4.809898451444602, 5.362311101832829 -4.499513267805796 C5.622755194947046 -4.189128084166989, 5.859588285879637 -3.8508953774210393, 6.062177826491056 -3.500000000000025 C6.2647673671024755 -3.1491046225790105, 6.439268938068949 -2.774884796001623, 6.577848345501348 -2.3941410032797092 C6.716427752933747 -2.0133972105577955, 6.823295662002342 -1.6145607442151562, 6.893654271085451 -1.2155372436685434 C6.96401288016856 -0.8165137431219307, 6.982275711847575 -0.2025895406114567, 7 -3.2800750208310675e-14 C7.017724288152425 0.2025895406113911, 7.017724288152424 -0.2025895406114242, 7 0" stroke="#457b9d" stroke-width="2" fill="none" stroke-dasharray="0 0" style=""/><g><path d="M2.5 0 C2.5 0.14470681472244193, 2.487147457203058 0.29161205111496386, 2.46201938253052 0.4341204441673258 C2.436891307857982 0.5766288372196877, 2.3987241974763416 0.7190704323420595, 2.3492315519647713 0.8550503583141718 C2.299738906453201 0.991030284286284, 2.2374169168223177 1.124680222349637, 2.165063509461097 1.2499999999999998 C2.092710102099876 1.3753197776503625, 2.0081268553382365 1.496117172916774, 1.915111107797445 1.6069690242163481 C1.8220953602566536 1.7178208755159223, 1.7178208755159226 1.8220953602566536, 1.6069690242163484 1.915111107797445 C1.4961171729167742 2.0081268553382365, 1.375319777650363 2.0927101020998755, 1.2500000000000002 2.1650635094610964 C1.1246802223496375 2.2374169168223172, 0.9910302842862845 2.2997389064532, 0.8550503583141721 2.349231551964771 C0.7190704323420597 2.3987241974763416, 0.576628837219688 2.436891307857982, 0.43412044416732604 2.46201938253052 C0.291612051114964 2.487147457203058, 0.14470681472244212 2.5, 1.5308084989341916e-16 2.5 C-0.1447068147224418 2.5, -0.2916120511149638 2.487147457203058, -0.43412044416732576 2.46201938253052 C-0.5766288372196877 2.436891307857982, -0.7190704323420595 2.3987241974763416, -0.8550503583141718 2.3492315519647713 C-0.991030284286284 2.299738906453201, -1.124680222349637 2.2374169168223177, -1.2499999999999996 2.165063509461097 C-1.375319777650362 2.092710102099876, -1.4961171729167733 2.008126855338237, -1.6069690242163475 1.9151111077974459 C-1.7178208755159217 1.8220953602566548, -1.822095360256653 1.7178208755159234, -1.9151111077974443 1.6069690242163495 C-2.0081268553382357 1.4961171729167755, -2.0927101020998746 1.3753197776503645, -2.1650635094610955 1.250000000000002 C-2.2374169168223164 1.1246802223496395, -2.2997389064531992 0.9910302842862865, -2.34923155196477 0.8550503583141743 C-2.3987241974763407 0.7190704323420621, -2.436891307857981 0.5766288372196907, -2.4620193825305194 0.434120444167329 C-2.487147457203058 0.29161205111496724, -2.5 0.14470681472244545, -2.5 3.636830773662308e-15 C-2.5 -0.14470681472243818, -2.4871474572030587 -0.2916120511149599, -2.4620193825305208 -0.4341204441673218 C-2.436891307857983 -0.5766288372196837, -2.398724197476343 -0.7190704323420553, -2.3492315519647726 -0.8550503583141675 C-2.2997389064532023 -0.9910302842862798, -2.23741691682232 -1.1246802223496328, -2.165063509461099 -1.2499999999999956 C-2.092710102099878 -1.3753197776503583, -2.00812685533824 -1.4961171729167695, -1.9151111077974488 -1.606969024216344 C-1.8220953602566576 -1.7178208755159183, -1.7178208755159263 -1.82209536025665, -1.6069690242163523 -1.9151111077974416 C-1.4961171729167784 -2.0081268553382334, -1.3753197776503672 -2.0927101020998724, -1.2500000000000047 -2.1650635094610937 C-1.1246802223496422 -2.237416916822315, -0.9910302842862897 -2.299738906453198, -0.8550503583141776 -2.3492315519647686 C-0.7190704323420656 -2.3987241974763394, -0.5766288372196942 -2.4368913078579806, -0.43412044416733236 -2.462019382530519 C-0.29161205111497057 -2.4871474572030574, -0.1447068147224489 -2.4999999999999996, -7.120580697431198e-15 -2.5 C0.14470681472243463 -2.5000000000000004, 0.29161205111495647 -2.487147457203059, 0.4341204441673183 -2.4620193825305217 C0.5766288372196802 -2.436891307857984, 0.7190704323420518 -2.3987241974763442, 0.8550503583141642 -2.349231551964774 C0.9910302842862766 -2.2997389064532037, 1.1246802223496295 -2.2374169168223212, 1.2499999999999925 -2.165063509461101 C1.3753197776503554 -2.0927101020998804, 1.4961171729167668 -2.008126855338242, 1.6069690242163412 -1.915111107797451 C1.7178208755159157 -1.82209536025666, 1.8220953602566472 -1.7178208755159294, 1.915111107797439 -1.6069690242163557 C2.0081268553382308 -1.496117172916782, 2.09271010209987 -1.3753197776503712, 2.1650635094610915 -1.2500000000000089 C2.237416916822313 -1.1246802223496466, 2.299738906453196 -0.9910302842862939, 2.3492315519647673 -0.855050358314182 C2.3987241974763385 -0.71907043234207, 2.4368913078579792 -0.5766288372196986, 2.462019382530518 -0.4341204441673369 C2.487147457203057 -0.29161205111497523, 2.4936698970884197 -0.07235340736123454, 2.5 -1.1714553645825241e-14 C2.5063301029115803 0.07235340736121111, 2.50633010291158 -0.07235340736122292, 2.5 0" stroke="none" stroke-width="0" fill="#9370DB" style=""/><path d="M2.5 0 C2.5 0.14470681472244193, 2.487147457203058 0.29161205111496386, 2.46201938253052 0.4341204441673258 C2.436891307857982 0.5766288372196877, 2.3987241974763416 0.7190704323420595, 2.3492315519647713 0.8550503583141718 C2.299738906453201 0.991030284286284, 2.2374169168223177 1.124680222349637, 2.165063509461097 1.2499999999999998 C2.092710102099876 1.3753197776503625, 2.0081268553382365 1.496117172916774, 1.915111107797445 1.6069690242163481 C1.8220953602566536 1.7178208755159223, 1.7178208755159226 1.8220953602566536, 1.6069690242163484 1.915111107797445 C1.4961171729167742 2.0081268553382365, 1.375319777650363 2.0927101020998755, 1.2500000000000002 2.1650635094610964 C1.1246802223496375 2.2374169168223172, 0.9910302842862845 2.2997389064532, 0.8550503583141721 2.349231551964771 C0.7190704323420597 2.3987241974763416, 0.576628837219688 2.436891307857982, 0.43412044416732604 2.46201938253052 C0.291612051114964 2.487147457203058, 0.14470681472244212 2.5, 1.5308084989341916e-16 2.5 C-0.1447068147224418 2.5, -0.2916120511149638 2.487147457203058, -0.43412044416732576 2.46201938253052 C-0.5766288372196877 2.436891307857982, -0.7190704323420595 2.3987241974763416, -0.8550503583141718 2.3492315519647713 C-0.991030284286284 2.299738906453201, -1.124680222349637 2.2374169168223177, -1.2499999999999996 2.165063509461097 C-1.375319777650362 2.092710102099876, -1.4961171729167733 2.008126855338237, -1.6069690242163475 1.9151111077974459 C-1.7178208755159217 1.8220953602566548, -1.822095360256653 1.7178208755159234, -1.9151111077974443 1.6069690242163495 C-2.0081268553382357 1.4961171729167755, -2.0927101020998746 1.3753197776503645, -2.1650635094610955 1.250000000000002 C-2.2374169168223164 1.1246802223496395, -2.2997389064531992 0.9910302842862865, -2.34923155196477 0.8550503583141743 C-2.3987241974763407 0.7190704323420621, -2.436891307857981 0.5766288372196907, -2.4620193825305194 0.434120444167329 C-2.487147457203058 0.29161205111496724, -2.5 0.14470681472244545, -2.5 3.636830773662308e-15 C-2.5 -0.14470681472243818, -2.4871474572030587 -0.2916120511149599, -2.4620193825305208 -0.4341204441673218 C-2.436891307857983 -0.5766288372196837, -2.398724197476343 -0.7190704323420553, -2.3492315519647726 -0.8550503583141675 C-2.2997389064532023 -0.9910302842862798, -2.23741691682232 -1.1246802223496328, -2.165063509461099 -1.2499999999999956 C-2.092710102099878 -1.3753197776503583, -2.00812685533824 -1.4961171729167695, -1.9151111077974488 -1.606969024216344 C-1.8220953602566576 -1.7178208755159183, -1.7178208755159263 -1.82209536025665, -1.6069690242163523 -1.9151111077974416 C-1.4961171729167784 -2.0081268553382334, -1.3753197776503672 -2.0927101020998724, -1.2500000000000047 -2.1650635094610937 C-1.1246802223496422 -2.237416916822315, -0.9910302842862897 -2.299738906453198, -0.8550503583141776 -2.3492315519647686 C-0.7190704323420656 -2.3987241974763394, -0.5766288372196942 -2.4368913078579806, -0.43412044416733236 -2.462019382530519 C-0.29161205111497057 -2.4871474572030574, -0.1447068147224489 -2.4999999999999996, -7.120580697431198e-15 -2.5 C0.14470681472243463 -2.5000000000000004, 0.29161205111495647 -2.487147457203059, 0.4341204441673183 -2.4620193825305217 C0.5766288372196802 -2.436891307857984, 0.7190704323420518 -2.3987241974763442, 0.8550503583141642 -2.349231551964774 C0.9910302842862766 -2.2997389064532037, 1.1246802223496295 -2.2374169168223212, 1.2499999999999925 -2.165063509461101 C1.3753197776503554 -2.0927101020998804, 1.4961171729167668 -2.008126855338242, 1.6069690242163412 -1.915111107797451 C1.7178208755159157 -1.82209536025666, 1.8220953602566472 -1.7178208755159294, 1.915111107797439 -1.6069690242163557 C2.0081268553382308 -1.496117172916782, 2.09271010209987 -1.3753197776503712, 2.1650635094610915 -1.2500000000000089 C2.237416916822313 -1.1246802223496466, 2.299738906453196 -0.9910302842862939, 2.3492315519647673 -0.855050358314182 C2.3987241974763385 -0.71907043234207, 2.4368913078579792 -0.5766288372196986, 2.462019382530518 -0.4341204441673369 C2.487147457203057 -0.29161205111497523, 2.4936698970884197 -0.07235340736123454, 2.5 -1.1714553645825241e-14 C2.5063301029115803 0.07235340736121111, 2.50633010291158 -0.07235340736122292, 2.5 0" stroke="#9370DB" stroke-width="2" fill="none" stroke-dasharray="0 0" style=""/></g></g></g><g class="node  statediagram-state" id="my-svg-state-HEALTHY-21" data-look="classic" transform="translate(1071.37890625, 724)"><rect class="basic label-container" style="" rx="5" ry="5" x="-44.3046875" y="-20" width="88.609375" height="40"/><g class="label" style="" transform="translate(-36.3046875, -12)"><rect/><foreignObject width="72.609375" height="24"><div xmlns="http://www.w3.org/1999/xhtml" style="display: table-cell; white-space: nowrap; line-height: 1.5; max-width: 200px; text-align: center;"><span class="nodeLabel markdown-node-label"><p>HEALTHY</p></span></div></foreignObject></g></g><g class="node  statediagram-state" id="my-svg-state-DEGRADED-22" data-look="classic" transform="translate(1032.984375, 966)"><rect class="basic label-container" style="" rx="5" ry="5" x="-53.34375" y="-20" width="106.6875" height="40"/><g class="label" style="" transform="translate(-45.34375, -12)"><rect/><foreignObject width="90.6875" height="24"><div xmlns="http://www.w3.org/1999/xhtml" style="display: table-cell; white-space: nowrap; line-height: 1.5; max-width: 200px; text-align: center;"><span class="nodeLabel markdown-node-label"><p>DEGRADED</p></span></div></foreignObject></g></g><g class="node  statediagram-state" id="my-svg-state-UNHEALTHY-23" data-look="classic" transform="translate(1132.8359375, 1276)"><rect class="basic label-container" style="" rx="5" ry="5" x="-55.859375" y="-20" width="111.71875" height="40"/><g class="label" style="" transform="translate(-47.859375, -12)"><rect/><foreignObject width="95.71875" height="24"><div xmlns="http://www.w3.org/1999/xhtml" style="display: table-cell; white-space: nowrap; line-height: 1.5; max-width: 200px; text-align: center;"><span class="nodeLabel markdown-node-label"><p>UNHEALTHY</p></span></div></foreignObject></g></g><g class="node  statediagram-state" id="my-svg-state-SHUTTING_DOWN-18" data-look="classic" transform="translate(1432.3828125, 1562)"><rect class="basic label-container" style="" rx="5" ry="5" x="-78.6640625" y="-20" width="157.328125" height="40"/><g class="label" style="" transform="translate(-70.6640625, -12)"><rect/><foreignObject width="141.328125" height="24"><div xmlns="http://www.w3.org/1999/xhtml" style="display: table-cell; white-space: nowrap; line-height: 1.5; max-width: 200px; text-align: center;"><span class="nodeLabel markdown-node-label"><p>SHUTTING_DOWN</p></span></div></foreignObject></g></g><g class="node  statediagram-state" id="my-svg-state-RECOVERING-17" data-look="classic" transform="translate(812.3828125, 1562)"><rect class="basic label-container" style="" rx="5" ry="5" x="-61.7890625" y="-20" width="123.578125" height="40"/><g class="label" style="" transform="translate(-53.7890625, -12)"><rect/><foreignObject width="107.578125" height="24"><div xmlns="http://www.w3.org/1999/xhtml" style="display: table-cell; white-space: nowrap; line-height: 1.5; max-width: 200px; text-align: center;"><span class="nodeLabel markdown-node-label"><p>RECOVERING</p></span></div></foreignObject></g></g><g class="node  statediagram-state" id="my-svg-state-DRAINING-19" data-look="classic" transform="translate(1432.3828125, 1780)"><rect class="basic label-container" style="" rx="5" ry="5" x="-47.1171875" y="-20" width="94.234375" height="40"/><g class="label" style="" transform="translate(-39.1171875, -12)"><rect/><foreignObject width="78.234375" height="24"><div xmlns="http://www.w3.org/1999/xhtml" style="display: table-cell; white-space: nowrap; line-height: 1.5; max-width: 200px; text-align: center;"><span class="nodeLabel markdown-node-label"><p>DRAINING</p></span></div></foreignObject></g></g><g class="node  statediagram-state" id="my-svg-state-TERMINATING-20" data-look="classic" transform="translate(1432.3828125, 1918)"><rect class="basic label-container" style="" rx="5" ry="5" x="-62.515625" y="-20" width="125.03125" height="40"/><g class="label" style="" transform="translate(-54.515625, -12)"><rect/><foreignObject width="109.03125" height="24"><div xmlns="http://www.w3.org/1999/xhtml" style="display: table-cell; white-space: nowrap; line-height: 1.5; max-width: 200px; text-align: center;"><span class="nodeLabel markdown-node-label"><p>TERMINATING</p></span></div></foreignObject></g></g><g class="node statediagram-note" id="my-svg-state-HEALTHY----note-21" data-look="classic" transform="translate(147.359375, 966)"><g class="basic label-container outer-path"><path d="M-104.359375 -75 L104.359375 -75 L104.359375 75 L-104.359375 75" stroke="none" stroke-width="0" fill="#fff5ad" style=""/><path d="M-104.359375 -75 C-51.439527568456086 -75, 1.4803198630878285 -75, 104.359375 -75 M-104.359375 -75 C-38.391283557482325 -75, 27.57680788503535 -75, 104.359375 -75 M104.359375 -75 C104.359375 -41.26159111040004, 104.359375 -7.523182220800081, 104.359375 75 M104.359375 -75 C104.359375 -33.06260843885142, 104.359375 8.87478312229716, 104.359375 75 M104.359375 75 C29.260438061365136 75, -45.83849887726973 75, -104.359375 75 M104.359375 75 C31.912145146205134 75, -40.53508470758973 75, -104.359375 75 M-104.359375 75 C-104.359375 27.387942199528084, -104.359375 -20.224115600943833, -104.359375 -75 M-104.359375 75 C-104.359375 18.719380757658207, -104.359375 -37.561238484683585, -104.359375 -75" stroke="#aaaa33" stroke-width="1.3" fill="none" stroke-dasharray="0 0" style=""/></g><g class="label noteLabel" style="" transform="translate(-89.359375, -60)"><rect/><foreignObject width="178.71875" height="120"><div xmlns="http://www.w3.org/1999/xhtml" style="display: table-cell; white-space: nowrap; line-height: 1.5; max-width: 200px; text-align: center;"><span class="nodeLabel markdown-node-label"><p>Health checks:<br />- /healthz (liveness, 10s)<br />- /readyz (readiness, 5s)<br />- /metrics (Prometheus)<br />Circuit breaker: CLOSED</p></span></div></foreignObject></g></g><g class="node statediagram-note" id="my-svg-state-DEGRADED----note-22" data-look="classic" transform="translate(306.71875, 1276)"><g class="basic label-container outer-path"><path d="M-115 -63 L115 -63 L115 63 L-115 63" stroke="none" stroke-width="0" fill="#fff5ad" style=""/><path d="M-115 -63 C-56.26022058674167 -63, 2.4795588265166657 -63, 115 -63 M-115 -63 C-34.93650121500548 -63, 45.126997569989044 -63, 115 -63 M115 -63 C115 -33.94287365700757, 115 -4.885747314015141, 115 63 M115 -63 C115 -17.73882418725359, 115 27.522351625492817, 115 63 M115 63 C28.867256879392187 63, -57.265486241215626 63, -115 63 M115 63 C66.00989629849663 63, 17.019792596993256 63, -115 63 M-115 63 C-115 36.23689183838462, -115 9.473783676769237, -115 -63 M-115 63 C-115 14.446245088017356, -115 -34.10750982396529, -115 -63" stroke="#aaaa33" stroke-width="1.3" fill="none" stroke-dasharray="0 0" style=""/></g><g class="label noteLabel" style="" transform="translate(-100, -48)"><rect/><foreignObject width="200" height="96"><div xmlns="http://www.w3.org/1999/xhtml" style="display: table; white-space: break-spaces; line-height: 1.5; max-width: 200px; text-align: center; width: 200px;"><span class="nodeLabel markdown-node-label"><p>Circuit breaker: HALF-OPEN<br />Alerting: PagerDuty P3<br />Reduced traffic: 50%</p></span></div></foreignObject></g></g><g class="node statediagram-note" id="my-svg-state-UNHEALTHY----note-23" data-look="classic" transform="translate(476.71875, 1562)"><g class="basic label-container outer-path"><path d="M-101.265625 -51 L101.265625 -51 L101.265625 51 L-101.265625 51" stroke="none" stroke-width="0" fill="#fff5ad" style=""/><path d="M-101.265625 -51 C-41.63405222052906 -51, 17.997520558941886 -51, 101.265625 -51 M-101.265625 -51 C-50.92270657096319 -51, -0.579788141926386 -51, 101.265625 -51 M101.265625 -51 C101.265625 -10.257743914209193, 101.265625 30.484512171581613, 101.265625 51 M101.265625 -51 C101.265625 -21.532455196160893, 101.265625 7.935089607678215, 101.265625 51 M101.265625 51 C46.330323665860135 51, -8.60497766827973 51, -101.265625 51 M101.265625 51 C25.957181784716866 51, -49.35126143056627 51, -101.265625 51 M-101.265625 51 C-101.265625 10.949178375541102, -101.265625 -29.101643248917796, -101.265625 -51 M-101.265625 51 C-101.265625 10.692923982909996, -101.265625 -29.61415203418001, -101.265625 -51" stroke="#aaaa33" stroke-width="1.3" fill="none" stroke-dasharray="0 0" style=""/></g><g class="label noteLabel" style="" transform="translate(-86.265625, -36)"><rect/><foreignObject width="172.53125" height="72"><div xmlns="http://www.w3.org/1999/xhtml" style="display: table-cell; white-space: nowrap; line-height: 1.5; max-width: 200px; text-align: center;"><span class="nodeLabel markdown-node-label"><p>Circuit breaker: OPEN<br />Alerting: PagerDuty P1<br />K8s: fails liveness probe</p></span></div></foreignObject></g></g></g></g></g><defs><filter id="my-svg-drop-shadow" height="130%" width="130%"><feDropShadow dx="4" dy="4" stdDeviation="0" flood-opacity="0.06" flood-color="#000000"/></filter></defs><defs><filter id="my-svg-drop-shadow-small" height="150%" width="150%"><feDropShadow dx="2" dy="2" stdDeviation="0" flood-opacity="0.06" flood-color="#000000"/></filter></defs></svg>